<svg aria-hidden="true" style="width:0;height:0;position:absolute;overflow:hidden" xmlns="http://www.w3.org/2000/svg"><defs><symbol id="icon-freshnesecom" viewBox="0 0 315 32"><path d="M6.884 19.129h11.614v-6.258H6.884V6.259H21.08v-6.26H.001v31.305h6.884V19.128zm16.552.435v11.74h6.453v-11.74c0-3.609 2.882-6.521 6.453-6.521V7.13h-.86c-7.141 0-12.046 5.564-12.046 12.434zM50.768 7.129c-7.14 0-12.905 5.566-12.905 12.436 0 6.871 5.765 12.436 12.907 12.436 5.678 0 10.496-3.522 12.217-8.436h-7.141a6.399 6.399 0 0 1-5.077 2.523h-.001c-2.795 0-5.12-1.783-6.066-4.261h18.756c.132-.74.217-1.477.217-2.261 0-6.869-5.765-12.434-12.907-12.434zm-6.066 10.176c.948-2.478 3.271-4.261 6.066-4.261 2.756 0 5.12 1.783 6.066 4.261H44.702zm33.067.174c-2.494-.306-5.333-1.392-5.333-2.784 0-1.564 1.333-2.087 2.752-2.087 1.42 0 2.756.523 2.756 2.523h6.452c0-5.044-4.217-8-9.207-8s-9.205 2.956-9.205 7.739c0 3.696 4.345 6.478 8.862 7.044 1.936.261 3.355 1.262 3.355 2.347 0 1.524-1.591 2.261-3.012 2.261-1.419 0-3.012-.521-3.012-2.521h-6.453c0 5.044 4.475 8 9.465 8s9.465-2.956 9.465-8c0-3.957-3.484-6.13-6.884-6.521zm22.288-10.35a8.474 8.474 0 0 0-5.593 2.089V0h-6.453v31.305h6.453V19.52c0-3.564 2.023-6.478 5.593-6.478 3.572 0 5.593 2.914 5.593 6.521v11.74h6.453v-11.74c0-6.869-4.905-12.434-12.046-12.434zm27.973 0c-7.14 0-12.044 5.566-12.044 12.436v11.74h6.453v-11.74c0-3.609 2.021-6.521 5.591-6.521 3.572 0 5.593 2.914 5.593 6.521v11.74h6.453v-11.74c0-6.869-4.905-12.434-12.046-12.434zm27.766 0c-7.141 0-12.907 5.566-12.907 12.436 0 6.871 5.765 12.436 12.907 12.436 5.678 0 10.496-3.522 12.217-8.436h-7.141a6.393 6.393 0 0 1-5.075 2.523h-.001c-2.796 0-5.12-1.783-6.066-4.261h18.756c.13-.74.215-1.477.215-2.261 0-6.869-5.765-12.434-12.907-12.434zm-6.066 10.176c.946-2.478 3.269-4.261 6.066-4.261 2.752 0 5.12 1.783 6.066 4.261H149.73zm33.065.174c-2.494-.306-5.333-1.392-5.333-2.784 0-1.564 1.333-2.087 2.754-2.087 1.419 0 2.752.523 2.752 2.523h6.453c0-5.044-4.215-8-9.205-8s-9.207 2.956-9.207 7.739c0 3.696 4.345 6.478 8.862 7.044 1.936.261 3.355 1.262 3.355 2.347 0 1.524-1.591 2.261-3.01 2.261-1.42 0-3.012-.521-3.012-2.521h-6.453c0 5.044 4.475 8 9.465 8s9.463-2.956 9.463-8c0-3.957-3.484-6.13-6.884-6.521zm21.857-10.35c-7.141 0-12.905 5.566-12.905 12.436 0 6.871 5.764 12.436 12.905 12.436 5.678 0 10.498-3.522 12.219-8.436h-7.141a6.399 6.399 0 0 1-5.077 2.523h-.001c-2.796 0-5.118-1.783-6.066-4.261h18.757c.128-.74.215-1.477.215-2.261 0-6.869-5.765-12.434-12.907-12.434zm-6.065 10.176c.948-2.478 3.269-4.261 6.066-4.261 2.754 0 5.12 1.783 6.066 4.261h-12.132zm33.584-4.261c2.494 0 4.603 1.392 5.721 3.477h6.796c-1.419-5.39-6.496-9.39-12.517-9.39-7.141 0-12.907 5.564-12.907 12.434 0 6.871 5.765 12.436 12.907 12.436 5.979 0 10.969-3.913 12.432-9.218h-6.926c-1.076 1.956-3.097 3.305-5.506 3.305-3.572 0-6.453-2.914-6.453-6.523s2.882-6.521 6.453-6.521zm39.703 6.52c0-6.869-5.721-12.434-12.82-12.434-7.097 0-12.82 5.564-12.82 12.434 0 6.871 5.723 12.436 12.82 12.436 7.099 0 12.82-5.564 12.82-12.436zm-6.452 0c0 3.609-2.841 6.523-6.368 6.523s-6.366-2.914-6.366-6.523c0-3.609 2.839-6.521 6.366-6.521s6.368 2.914 6.368 6.521zm37.63-12.435h-.003a10.843 10.843 0 0 0-8.372 3.939l-.015.018c-2.008-2.423-5.018-3.956-8.385-3.956h-.004c-7.141 0-11.614 5.564-11.614 12.434v11.74h6.453v-11.74c0-3.609 1.591-6.521 5.161-6.521 3.572 0 5.163 2.914 5.163 6.521v11.74h6.453v-11.74c0-3.609 1.591-6.521 5.163-6.521 3.57 0 5.161 2.914 5.161 6.521v11.74h6.453v-11.74c0-6.869-4.475-12.434-11.614-12.434z"/></symbol><symbol id="icon-shopping-bag" viewBox="0 0 32 32"><path stroke="#151515" style="stroke:$main-black" stroke-linejoin="round" stroke-linecap="round" stroke-width="3.333" d="M23.853 27.8H8.144a1.893 1.893 0 0 1-1.835-1.427l-.003-.013-3.533-14.147a.933.933 0 0 1 .905-1.16H28.32a.933.933 0 0 1 .904 1.166l.001-.006-3.533 14.147a1.898 1.898 0 0 1-1.838 1.44h-.002 0zM13.067 4.2 9.2 11.053M18.507 4.2l3.88 6.853"/></symbol><symbol id="icon-user" viewBox="0 0 32 32"><path stroke="#151515" style="stroke:$main-black" stroke-linejoin="round" stroke-linecap="round" stroke-width="3.333" d="m4 29.333 1.053-3.84c3.48-12.667 18.413-12.667 21.893 0l1.053 3.84"/><path stroke="#151515" style="stroke:$main-black" stroke-linejoin="bevel" stroke-linecap="round" stroke-width="3.333" d="M16 15.973a6.667 6.667 0 0 0 0-13.334v0a6.667 6.667 0 0 0 0 13.334v0z"/></symbol><symbol id="icon-search" viewBox="0 0 32 32"><path fill="none" stroke="#151515" style="stroke:$main-black" stroke-linejoin="bevel" stroke-linecap="round" stroke-width="3.333" d="m18.386 22.866.137.001A9.334 9.334 0 1 0 18.379 4.2h.007c-5.096.077-9.197 4.226-9.197 9.333s4.101 9.256 9.19 9.333h.007zm-6.76-2.386-6.252 6.254"/></symbol><symbol id="icon-green-arrow-down" viewBox="0 0 32 32"><path fill="none" stroke="#6a983c" style="stroke:#6a983c" stroke-linejoin="bevel" stroke-linecap="round" stroke-width="5" d="m9.626 13.066 5.48 5.48a1.33 1.33 0 0 0 1.88-.001l5.334-5.332"/></symbol><symbol id="icon-black-arrow-right" viewBox="0 0 32 32"><path fill="none" stroke="#151515" style="stroke:#151515" stroke-linecap="round" stroke-width="5" d="m14.066 22.374 5.48-5.48a1.33 1.33 0 0 0-.001-1.88L14.213 9.68"/></symbol><symbol id="icon-green-arrow-right" viewBox="0 0 32 32"><path fill="none" stroke="#92c064" style="stroke:#92c064" stroke-linecap="round" stroke-width="5" d="m14.066 22.374 5.48-5.48a1.33 1.33 0 0 0-.001-1.88L14.213 9.68"/></symbol><symbol id="icon-slider-right" viewBox="0 0 21 32"><path d="M1.231 8A7.385 7.385 0 0 1 8.616.615h12.308v29.538H8.616a7.385 7.385 0 0 1-7.385-7.385V7.999z"/><path stroke="#fff" style="stroke:#fff" stroke-linejoin="bevel" stroke-linecap="round" stroke-width="1.538" d="m9.271 19.306 3.372-3.372a.819.819 0 0 0 0-1.157l-3.282-3.282"/></symbol><symbol id="icon-slider-left" viewBox="0 0 21 32"><path d="M0 .615h12.308A7.385 7.385 0 0 1 19.693 8v14.769a7.385 7.385 0 0 1-7.385 7.385H0V.616z"/><path stroke="#fff" style="stroke:#fff" stroke-linejoin="bevel" stroke-linecap="round" stroke-width="1.538" d="m11.651 11.463-3.372 3.372a.816.816 0 0 0 0 1.157l3.282 3.282"/></symbol><symbol id="compare" viewBox="0 0 35 32"><path stroke-linejoin="bevel" stroke-linecap="round" stroke-width="2.667" d="M14 2.667H8.667A2.667 2.667 0 0 0 6 5.334v5.333a2.667 2.667 0 0 0 2.667 2.667H14a2.667 2.667 0 0 0 2.667-2.667V5.334A2.667 2.667 0 0 0 14 2.667zm0 16H8.667A2.667 2.667 0 0 0 6 21.334v5.333a2.667 2.667 0 0 0 2.667 2.667H14a2.667 2.667 0 0 0 2.667-2.667v-5.333A2.667 2.667 0 0 0 14 18.667zm14.667 2.666h-8M26 26.667h-5.333m5.333-16h-5.333m8-5.334h-8"/></symbol><symbol id="heart" viewBox="0 0 35 32"><path stroke-linejoin="bevel" stroke-linecap="round" stroke-width="2.667" d="M19.083 6.52a6.789 6.789 0 1 1 9.602 9.598l-.002.002-1.749 1.747-9.6 9.6L5.987 16.12a6.789 6.789 0 0 1 9.601-9.598l-.002-.002 1.747 1.747L19.08 6.52z"/></symbol><symbol id="remove" viewBox="0 0 35 32"><path stroke-linejoin="bevel" stroke-linecap="round" stroke-width="2.667" d="M25.813 24.48 8.853 7.52m16.96 0L8.853 24.48"/></symbol><symbol id="star" viewBox="0 0 34 32"><path stroke-linejoin="round" stroke-linecap="round" stroke-width="3" d="M15.668 4.254a1.44 1.44 0 0 1 2.743-.01l.003.01 2.48 7.626h8l.052-.001a1.454 1.454 0 0 1 .807 2.664l-.005.003-6.494 4.708 2.48 7.64a1.44 1.44 0 0 1-2.229 1.609l.004.003-6.506-4.76-6.494 4.72a1.44 1.44 0 0 1-2.223-1.623l-.003.01 2.48-7.64-6.494-4.708a1.454 1.454 0 0 1 .857-2.666h-.003 8l2.546-7.586z"/></symbol></defs></svg>