<svg aria-hidden="true" style="position: absolute; width: 0; height: 0; overflow: hidden;" version="1.1" xmlns="http://www.w3.org/2000/svg" xmlns:xlink="http://www.w3.org/1999/xlink">
<defs>
<symbol id="icon-freshnesecom" viewBox="0 0 315 32">
<path d="M6.884 19.129h11.614v-6.258h-11.614v-6.612h14.196v-6.26h-21.079v31.305h6.884v-12.176zM23.436 19.564v11.74h6.453v-11.74c0-3.609 2.882-6.521 6.453-6.521v-5.913h-0.86c-7.141 0-12.046 5.564-12.046 12.434zM50.768 7.129c-7.14 0-12.905 5.566-12.905 12.436 0 6.871 5.765 12.436 12.907 12.436 5.678 0 10.496-3.522 12.217-8.436h-7.141c-1.178 1.536-3.013 2.518-5.077 2.523h-0.001c-2.795 0-5.12-1.783-6.066-4.261h18.756c0.132-0.74 0.217-1.477 0.217-2.261 0-6.869-5.765-12.434-12.907-12.434zM44.702 17.305c0.948-2.478 3.271-4.261 6.066-4.261 2.756 0 5.12 1.783 6.066 4.261h-12.132zM77.769 17.479c-2.494-0.306-5.333-1.392-5.333-2.784 0-1.564 1.333-2.087 2.752-2.087 1.42 0 2.756 0.523 2.756 2.523h6.452c0-5.044-4.217-8-9.207-8s-9.205 2.956-9.205 7.739c0 3.696 4.345 6.478 8.862 7.044 1.936 0.261 3.355 1.262 3.355 2.347 0 1.524-1.591 2.261-3.012 2.261-1.419 0-3.012-0.521-3.012-2.521h-6.453c0 5.044 4.475 8 9.465 8s9.465-2.956 9.465-8c0-3.957-3.484-6.13-6.884-6.521zM100.057 7.129c-2.151 0-4.087 0.784-5.593 2.089v-9.218h-6.453v31.305h6.453v-11.785c0-3.564 2.023-6.478 5.593-6.478 3.572 0 5.593 2.914 5.593 6.521v11.74h6.453v-11.74c0-6.869-4.905-12.434-12.046-12.434zM128.030 7.129c-7.14 0-12.044 5.566-12.044 12.436v11.74h6.453v-11.74c0-3.609 2.021-6.521 5.591-6.521 3.572 0 5.593 2.914 5.593 6.521v11.74h6.453v-11.74c0-6.869-4.905-12.434-12.046-12.434zM155.796 7.129c-7.141 0-12.907 5.566-12.907 12.436 0 6.871 5.765 12.436 12.907 12.436 5.678 0 10.496-3.522 12.217-8.436h-7.141c-1.177 1.536-3.011 2.518-5.075 2.523h-0.001c-2.796 0-5.12-1.783-6.066-4.261h18.756c0.13-0.74 0.215-1.477 0.215-2.261 0-6.869-5.765-12.434-12.907-12.434zM149.73 17.305c0.946-2.478 3.269-4.261 6.066-4.261 2.752 0 5.12 1.783 6.066 4.261h-12.132zM182.795 17.479c-2.494-0.306-5.333-1.392-5.333-2.784 0-1.564 1.333-2.087 2.754-2.087 1.419 0 2.752 0.523 2.752 2.523h6.453c0-5.044-4.215-8-9.205-8s-9.207 2.956-9.207 7.739c0 3.696 4.345 6.478 8.862 7.044 1.936 0.261 3.355 1.262 3.355 2.347 0 1.524-1.591 2.261-3.010 2.261-1.42 0-3.012-0.521-3.012-2.521h-6.453c0 5.044 4.475 8 9.465 8s9.463-2.956 9.463-8c0-3.957-3.484-6.13-6.884-6.521zM204.652 7.129c-7.141 0-12.905 5.566-12.905 12.436 0 6.871 5.764 12.436 12.905 12.436 5.678 0 10.498-3.522 12.219-8.436h-7.141c-1.178 1.536-3.013 2.518-5.077 2.523h-0.001c-2.796 0-5.118-1.783-6.066-4.261h18.757c0.128-0.74 0.215-1.477 0.215-2.261 0-6.869-5.765-12.434-12.907-12.434zM198.587 17.305c0.948-2.478 3.269-4.261 6.066-4.261 2.754 0 5.12 1.783 6.066 4.261h-12.132zM232.171 13.044c2.494 0 4.603 1.392 5.721 3.477h6.796c-1.419-5.39-6.496-9.39-12.517-9.39-7.141 0-12.907 5.564-12.907 12.434 0 6.871 5.765 12.436 12.907 12.436 5.979 0 10.969-3.913 12.432-9.218h-6.926c-1.076 1.956-3.097 3.305-5.506 3.305-3.572 0-6.453-2.914-6.453-6.523s2.882-6.521 6.453-6.521zM271.874 19.564c0-6.869-5.721-12.434-12.82-12.434-7.097 0-12.82 5.564-12.82 12.434 0 6.871 5.723 12.436 12.82 12.436 7.099 0 12.82-5.564 12.82-12.436zM265.422 19.564c0 3.609-2.841 6.523-6.368 6.523s-6.366-2.914-6.366-6.523c0-3.609 2.839-6.521 6.366-6.521s6.368 2.914 6.368 6.521zM303.052 7.129c-0.001 0-0.002 0-0.003 0-3.369 0-6.379 1.533-8.372 3.939l-0.015 0.018c-2.008-2.423-5.018-3.956-8.385-3.956-0.001 0-0.003 0-0.004 0h0c-7.141 0-11.614 5.564-11.614 12.434v11.74h6.453v-11.74c0-3.609 1.591-6.521 5.161-6.521 3.572 0 5.163 2.914 5.163 6.521v11.74h6.453v-11.74c0-3.609 1.591-6.521 5.163-6.521 3.57 0 5.161 2.914 5.161 6.521v11.74h6.453v-11.74c0-6.869-4.475-12.434-11.614-12.434z"></path>
</symbol>
<symbol id="icon-shopping-bag" viewBox="0 0 32 32">
<path stroke="#151515" style="stroke: $main-black" stroke-linejoin="round" stroke-linecap="round" stroke-miterlimit="4" stroke-width="3.3333" d="M23.853 27.8h-15.707c-0.001 0-0.001 0-0.002 0-0.885 0-1.628-0.607-1.835-1.427l-0.003-0.013-3.533-14.147c-0.018-0.068-0.028-0.146-0.028-0.227 0-0.515 0.418-0.933 0.933-0.933 0 0 0.001 0 0.001 0h24.64c0 0 0.001 0 0.001 0 0.515 0 0.933 0.418 0.933 0.933 0 0.081-0.010 0.159-0.029 0.233l0.001-0.006-3.533 14.147c-0.211 0.833-0.954 1.44-1.838 1.44-0.001 0-0.001 0-0.002 0h0zM13.067 4.2l-3.867 6.853M18.507 4.2l3.88 6.853"></path>
</symbol>
<symbol id="icon-user" viewBox="0 0 32 32">
<path stroke="#151515" style="stroke: $main-black" stroke-linejoin="round" stroke-linecap="round" stroke-miterlimit="4" stroke-width="3.3333" d="M4 29.333l1.053-3.84c3.48-12.667 18.413-12.667 21.893 0l1.053 3.84"></path>
<path stroke="#151515" style="stroke: $main-black" stroke-linejoin="bevel" stroke-linecap="round" stroke-miterlimit="4" stroke-width="3.3333" d="M16 15.973c3.682 0 6.667-2.985 6.667-6.667s-2.985-6.667-6.667-6.667v0c-3.682 0-6.667 2.985-6.667 6.667s2.985 6.667 6.667 6.667v0z"></path>
</symbol>
<symbol id="icon-search" viewBox="0 0 32 32">
<path  fill="none" stroke="#151515" style="stroke: $main-black" stroke-linejoin="bevel" stroke-linecap="round" stroke-miterlimit="4" stroke-width="3.3333" d="M18.386 22.866c0.041 0.001 0.089 0.001 0.137 0.001 5.155 0 9.334-4.179 9.334-9.334s-4.179-9.334-9.334-9.334c-0.048 0-0.096 0-0.144 0.001l0.007-0c-5.096 0.077-9.197 4.226-9.197 9.333s4.101 9.256 9.19 9.333l0.007 0zM11.626 20.48l-6.252 6.254"></path>
</symbol>
<symbol id="icon-green-arrow-down" viewBox="0 0 32 32">
<path fill="none" stroke="#6a983c" style="stroke: #6a983c" stroke-linejoin="bevel" stroke-linecap="round" stroke-miterlimit="4" stroke-width="5" d="M9.626 13.066l5.48 5.48c0.241 0.239 0.573 0.387 0.94 0.387s0.699-0.148 0.94-0.388l5.334-5.332"></path>
</symbol>
<symbol id="icon-black-arrow-right" viewBox="0 0 32 32">
<path  fill="none" stroke="#151515" style="stroke: #151515" stroke-linecap="round" stroke-miterlimit="4" stroke-width="5" d="M14.066 22.374l5.48-5.48c0.239-0.241 0.387-0.573 0.387-0.94s-0.148-0.699-0.388-0.94l-5.332-5.334"></path>
</symbol>
<symbol id="icon-green-arrow-right" viewBox="0 0 32 32">
<path  fill="none" stroke="#92c064" style="stroke: #92c064" stroke-linecap="round" stroke-miterlimit="4" stroke-width="5" d="M14.066 22.374l5.48-5.48c0.239-0.241 0.387-0.573 0.387-0.94s-0.148-0.699-0.388-0.94l-5.332-5.334"></path>
</symbol>
<symbol id="icon-slider-right" viewBox="0 0 21 32">
<path d="M1.231 8c0-4.078 3.306-7.385 7.385-7.385h12.308v29.538h-12.308c-4.078 0-7.385-3.306-7.385-7.385v-14.769z"></path>
<path stroke="#fff" style="stroke: #fff" stroke-linejoin="bevel" stroke-linecap="round" stroke-miterlimit="4" stroke-width="1.5385" d="M9.271 19.306l3.372-3.372c0.147-0.148 0.238-0.353 0.238-0.578s-0.091-0.43-0.238-0.579l-3.282-3.282"></path>
</symbol>
<symbol id="icon-slider-left" viewBox="0 0 21 32">
<path  d="M0 0.615h12.308c4.078 0 7.385 3.306 7.385 7.385v14.769c0 4.078-3.306 7.385-7.385 7.385h-12.308v-29.538z"></path>
<path stroke="#fff" style="stroke: #fff" stroke-linejoin="bevel" stroke-linecap="round" stroke-miterlimit="4" stroke-width="1.5385" d="M11.651 11.463l-3.372 3.372c-0.148 0.148-0.239 0.353-0.239 0.578s0.091 0.43 0.239 0.579l3.282 3.282"></path>
</symbol>

<symbol id="compare" viewBox="0 0 35 32">
<path   stroke-linejoin="bevel" stroke-linecap="round" stroke-miterlimit="4" stroke-width="2.6667" d="M14 2.667h-5.333c-1.473 0-2.667 1.194-2.667 2.667v0 5.333c0 1.473 1.194 2.667 2.667 2.667v0h5.333c1.473 0 2.667-1.194 2.667-2.667v0-5.333c0-1.473-1.194-2.667-2.667-2.667v0zM14 18.667h-5.333c-1.473 0-2.667 1.194-2.667 2.667v0 5.333c0 1.473 1.194 2.667 2.667 2.667v0h5.333c1.473 0 2.667-1.194 2.667-2.667v0-5.333c0-1.473-1.194-2.667-2.667-2.667v0zM28.667 21.333h-8M26 26.667h-5.333M26 10.667h-5.333M28.667 5.333h-8"></path>
</symbol>
<symbol id="heart" viewBox="0 0 35 32">
<path  stroke-linejoin="bevel" stroke-linecap="round" stroke-miterlimit="4" stroke-width="2.6667" d="M19.083 6.52c1.237-1.281 2.969-2.076 4.887-2.076 3.75 0 6.789 3.040 6.789 6.789 0 1.918-0.795 3.65-2.074 4.885l-0.002 0.002-1.749 1.747-9.6 9.6-11.347-11.347c-1.177-1.219-1.903-2.882-1.903-4.713 0-3.75 3.040-6.789 6.789-6.789 1.832 0 3.494 0.725 4.715 1.904l-0.002-0.002 1.747 1.747 1.747-1.747z"></path>
</symbol>
<symbol id="remove" viewBox="0 0 35 32">
<path stroke-linejoin="bevel" stroke-linecap="round" stroke-miterlimit="4" stroke-width="2.6667" d="M25.813 24.48l-16.96-16.96M25.813 7.52l-16.96 16.96"></path>
</symbol>
<symbol id="star" viewBox="0 0 34 32">
<path  stroke-linejoin="round" stroke-linecap="round" stroke-miterlimit="4" stroke-width="3" d="M15.668 4.254c0.19-0.588 0.733-1.006 1.373-1.006s1.183 0.418 1.37 0.996l0.003 0.010 2.48 7.626h8c0.016-0.001 0.034-0.001 0.052-0.001 0.803 0 1.454 0.651 1.454 1.454 0 0.504-0.257 0.949-0.647 1.21l-0.005 0.003-6.494 4.708 2.48 7.64c0.047 0.136 0.075 0.294 0.075 0.457 0 0.795-0.645 1.44-1.44 1.44-0.324 0-0.624-0.107-0.864-0.288l0.004 0.003-6.506-4.76-6.494 4.72c-0.237 0.178-0.536 0.285-0.861 0.285-0.795 0-1.44-0.645-1.44-1.44 0-0.164 0.027-0.321 0.078-0.468l-0.003 0.010 2.48-7.64-6.494-4.708c-0.395-0.264-0.652-0.709-0.652-1.213 0-0.803 0.651-1.454 1.454-1.454 0.018 0 0.037 0 0.055 0.001l-0.003-0h8l2.546-7.586z"></path>
</symbol>
</defs>
</svg>
